# xmcd
#
# Track frame offsets:
#	150
#	18011
#	40754
#	55683
#	75534
#	92702
#	107786
#	124258
#	143511
#	162574
#	180976
#	197077
#
# Disc length: 2852 seconds
#
# Revision: 1
# Processed by: cddbd v1.5.2PL0 Copyright (c) Steve Scherf et al.
# Submitted via: audiograbber 1.83.01
#
DISCID=8f0b220c
DTITLE=Silje Nergaard - At First Light
DYEAR=2002
DGENRE=Pop
TTITLE0=There´s Always A First Time
TTITLE1=Be Still My Heart
TTITLE2=Let There Be Love
TTITLE3=So Sorry For Your Love
TTITLE4=Now And Then
TTITLE5=Two Sleepy People
TTITLE6=Keep On Backing Losers
TTITLE7=Blame It On The Sun
TTITLE8=At First Light
TTITLE9=There´s Trouble Brewing
TTITLE10=Japanese Blues
TTITLE11=Lullaby To Erle
EXTD=
EXTT0=
EXTT1=
EXTT2=
EXTT3=
EXTT4=
EXTT5=
EXTT6=
EXTT7=
EXTT8=
EXTT9=
EXTT10=
EXTT11=
PLAYORDER=
